<svg width="26" height="26" viewBox="0 0 26 26" fill="none" xmlns="http://www.w3.org/2000/svg">
<path d="M12.9973 20.4816C17.1254 20.4816 20.4789 17.1335 20.4789 13C20.4789 8.87184 17.1307 5.51837 12.9973 5.51837C10.843 5.51837 8.90093 6.43102 7.53726 7.8849C6.28501 9.22205 5.51562 11.0208 5.51562 12.9947C5.51563 17.1335 8.86909 20.4816 12.9973 20.4816ZM10.3866 15.9608C10.4556 15.7167 10.5193 15.4674 10.5989 15.2233C10.6891 14.942 10.7634 14.9049 11.0234 15.0429C11.4691 15.2763 11.936 15.4037 12.4295 15.4674C12.7479 15.5045 13.0609 15.4727 13.3528 15.3453C13.9046 15.1065 13.9895 14.4698 13.5226 14.0825C13.3634 13.9498 13.183 13.8543 12.9973 13.7747C12.5144 13.5625 12.0103 13.4033 11.5593 13.1274C10.8217 12.6869 10.3495 12.0767 10.4079 11.18C10.4715 10.1612 11.0446 9.5298 11.9785 9.19021C12.3605 9.05225 12.3658 9.05756 12.3658 8.65429C12.3658 8.51633 12.3658 8.38368 12.3658 8.24572C12.3711 7.94327 12.4242 7.89021 12.7266 7.8796C12.8222 7.87429 12.9124 7.8796 13.0079 7.8796C13.6499 7.8796 13.6499 7.8796 13.6552 8.52164C13.6552 8.97796 13.6552 8.97796 14.1115 9.04694C14.4564 9.1 14.7907 9.20082 15.1091 9.34409C15.2842 9.42368 15.3532 9.54572 15.3001 9.73143C15.2205 10.0074 15.1462 10.2886 15.056 10.5645C14.9711 10.8245 14.8915 10.8616 14.6422 10.7396C14.1381 10.4955 13.6128 10.3947 13.0609 10.4265C12.9177 10.4318 12.7744 10.4531 12.6364 10.5114C12.1589 10.7184 12.0793 11.249 12.4879 11.578C12.6948 11.7425 12.9283 11.8645 13.1724 11.9653C13.5968 12.1404 14.0213 12.3102 14.4246 12.5331C15.7087 13.2441 16.0536 14.8518 15.1515 15.9502C14.8226 16.3482 14.3981 16.6135 13.9046 16.7514C13.6871 16.8098 13.5915 16.9265 13.6022 17.1494C13.6128 17.3722 13.6022 17.5898 13.6022 17.8127C13.6022 18.009 13.5013 18.1151 13.305 18.1204C13.0662 18.1257 12.8275 18.1257 12.594 18.1204C12.3871 18.1151 12.2862 17.9984 12.2862 17.7967C12.2862 17.6376 12.2809 17.4731 12.2809 17.3139C12.2756 16.9584 12.265 16.9425 11.9254 16.8894C11.485 16.8204 11.0552 16.7196 10.6573 16.5233C10.3283 16.3694 10.2964 16.2898 10.3866 15.9608Z" fill="#0A1519"/>
<path d="M21.0998 21.1078C16.7806 25.4269 9.84547 25.5702 5.35118 21.5482H6.79445V20.0094H3.75934H3.7222H2.69812V21.0494V21.0706V24.1057H4.2369V22.6147C6.70955 24.8698 9.85077 26 12.992 26C16.3242 26 19.6512 24.7318 22.1875 22.1955L22.734 21.649L21.6463 20.5612L21.0998 21.1078Z" fill="#0A1519"/>
<path d="M21.7577 1.89429V3.38531C19.2851 1.1302 16.1438 0 13.0026 0C9.67036 0 6.34342 1.26816 3.80709 3.80449L3.26587 4.34571L4.35362 5.43347L4.90015 4.88694C9.21934 0.567755 16.1544 0.42449 20.6487 4.44653H19.2055V5.98531H22.2406H22.2777H23.3018V4.94531V4.92408V1.89429H21.7577Z" fill="#0A1519"/>
</svg>
