<svg width="24" height="24" viewBox="0 0 24 24" fill="none" xmlns="http://www.w3.org/2000/svg">
<path fill-rule="evenodd" clip-rule="evenodd" d="M12 2.75C6.89137 2.75 2.75 6.89137 2.75 12C2.75 17.1086 6.89137 21.25 12 21.25C17.1086 21.25 21.25 17.1086 21.25 12C21.25 6.89137 17.1086 2.75 12 2.75ZM1.25 12C1.25 6.06294 6.06294 1.25 12 1.25C17.9371 1.25 22.75 6.06294 22.75 12C22.75 17.9371 17.9371 22.75 12 22.75C6.06294 22.75 1.25 17.9371 1.25 12Z" fill="#0A1519"/>
<path fill-rule="evenodd" clip-rule="evenodd" d="M12 16.25C12.4142 16.25 12.75 16.5858 12.75 17V18C12.75 18.4142 12.4142 18.75 12 18.75C11.5858 18.75 11.25 18.4142 11.25 18V17C11.25 16.5858 11.5858 16.25 12 16.25Z" fill="#0A1519"/>
<path fill-rule="evenodd" clip-rule="evenodd" d="M12 5.25C12.4142 5.25 12.75 5.58579 12.75 6V7C12.75 7.41421 12.4142 7.75 12 7.75C11.5858 7.75 11.25 7.41421 11.25 7V6C11.25 5.58579 11.5858 5.25 12 5.25Z" fill="#0A1519"/>
<path fill-rule="evenodd" clip-rule="evenodd" d="M8.25 9.5C8.25 7.58285 10.0627 6.25 12 6.25C13.9373 6.25 15.75 7.58285 15.75 9.5C15.75 9.91421 15.4142 10.25 15 10.25C14.5858 10.25 14.25 9.91421 14.25 9.5C14.25 8.65573 13.3765 7.75 12 7.75C10.6235 7.75 9.75 8.65573 9.75 9.5C9.75 10.3443 10.6235 11.25 12 11.25C13.9373 11.25 15.75 12.5829 15.75 14.5C15.75 16.4171 13.9373 17.75 12 17.75C10.0627 17.75 8.25 16.4171 8.25 14.5C8.25 14.0858 8.58579 13.75 9 13.75C9.41421 13.75 9.75 14.0858 9.75 14.5C9.75 15.3443 10.6235 16.25 12 16.25C13.3765 16.25 14.25 15.3443 14.25 14.5C14.25 13.6557 13.3765 12.75 12 12.75C10.0627 12.75 8.25 11.4171 8.25 9.5Z" fill="#0A1519"/>
</svg>
