<svg width="28" height="28" viewBox="0 0 28 28" fill="none" xmlns="http://www.w3.org/2000/svg">
<g clip-path="url(#clip0_1_3652)">
<path fill-rule="evenodd" clip-rule="evenodd" d="M13.9388 0C21.6709 0 27.9388 6.26795 27.9388 14C27.9388 21.732 21.6709 28 13.9388 28C6.20679 28 -0.0611572 21.732 -0.0611572 14C-0.0611572 6.26795 6.20679 0 13.9388 0Z" fill="#003399"/>
<path fill-rule="evenodd" clip-rule="evenodd" d="M13.9726 3.34656L13.5948 4.39234L12.5288 4.42608L13.4194 5.08053L13.055 6.13306L13.9659 5.47861L13.9726 5.46511L13.9794 5.47861L14.8902 6.13306L14.5259 5.08053L15.4165 4.42608L14.3504 4.39234L13.9726 3.34656ZM9.31719 4.6015L8.93935 5.64728L7.87333 5.68102L8.76393 6.33547L8.3996 7.388L9.31044 6.73355L9.31719 6.72005L9.32393 6.73355L10.2348 7.388L9.87044 6.33547L10.761 5.68102L9.69502 5.64728L9.31719 4.6015ZM18.5471 4.6015L18.1692 5.64728L17.1032 5.68102L17.9938 6.33547L17.6295 7.388L18.5403 6.73355L18.5471 6.72005L18.5538 6.73355L19.4647 7.388L19.1003 6.33547L19.9909 5.68102L18.9249 5.64728L18.5471 4.6015ZM5.94369 7.93451L5.56586 8.98029L4.49984 9.01403L5.39044 9.66848L5.0261 10.721L5.93694 10.0666L5.94369 10.0531L5.95044 10.0666L6.86128 10.721L6.49694 9.66848L7.38755 9.01403L6.32152 8.98029L5.94369 7.93451ZM21.961 7.93451L21.5832 8.98029L20.5172 9.01403L21.4078 9.66848L21.0435 10.721L21.9543 10.0666L21.961 10.0531L21.9678 10.0666L22.8786 10.721L22.5143 9.66848L23.4049 9.01403L22.3389 8.98029L21.961 7.93451ZM4.70899 12.5697L4.33116 13.6155L3.26514 13.6492L4.15574 14.3037L3.7914 15.3562L4.70225 14.7017L4.70899 14.6882L4.71574 14.7017L5.62658 15.3562L5.26225 14.3037L6.15285 13.6492L5.08682 13.6155L4.70899 12.5697ZM23.1822 12.5697L22.8044 13.6155L21.7384 13.6492L22.629 14.3037L22.2647 15.3562L23.1755 14.7017L23.1822 14.6882L23.189 14.7017L24.0998 15.3562L23.7355 14.3037L24.6261 13.6492L23.5601 13.6155L23.1822 12.5697ZM5.94369 17.1644L5.56586 18.2102L4.49984 18.2439L5.39044 18.8984L5.0261 19.9509L5.93694 19.2964L5.94369 19.2829L5.95044 19.2964L6.86128 19.9509L6.49694 18.8984L7.38755 18.2439L6.32152 18.2102L5.94369 17.1644ZM21.961 17.1644L21.5832 18.2102L20.5172 18.2439L21.4078 18.8984L21.0435 19.9509L21.9543 19.2964L21.961 19.2829L21.9678 19.2964L22.8786 19.9509L22.5143 18.8984L23.4049 18.2439L22.3389 18.2102L21.961 17.1644ZM9.31719 20.5311L8.93935 21.5769L7.87333 21.6107L8.76393 22.2651L8.3996 23.3176L9.31044 22.6632L9.31719 22.6497L9.32393 22.6632L10.2348 23.3176L9.87044 22.2651L10.761 21.6107L9.69502 21.5769L9.31719 20.5311ZM18.5471 20.5311L18.1692 21.5769L17.1032 21.6107L17.9938 22.2651L17.6295 23.3176L18.5403 22.6632L18.5471 22.6497L18.5538 22.6632L19.4647 23.3176L19.1003 22.2651L19.9909 21.6107L18.9249 21.5769L18.5471 20.5311ZM13.9794 21.8603L13.6015 22.9061L12.5355 22.9398L13.4261 23.5943L13.0618 24.6468L13.9726 23.9923L13.9794 23.9788L13.9861 23.9923L14.8969 24.6468L14.5326 23.5943L15.4232 22.9398L14.3572 22.9061L13.9794 21.8603Z" fill="#FFED00"/>
</g>
<defs>
<clipPath id="clip0_1_3652">
<rect width="28" height="28" fill="white"/>
</clipPath>
</defs>
</svg>
