<svg width="107" height="48" viewBox="0 0 107 48" fill="none" xmlns="http://www.w3.org/2000/svg">
<path d="M0 33.0001V14.6401H13.176V18.0691H4.32V21.9301H12.123V25.2781H4.32V29.5711H13.176V33.0001H0Z" fill="white"/>
<path d="M23.9737 26.8171V18.4741H28.1047V33.0001H23.9737V31.0561C23.0287 32.6761 21.5977 33.4321 19.8427 33.4321C17.0887 33.4321 15.0637 31.7581 15.0637 28.1401V18.4741H19.1947V27.3031C19.1947 29.1661 19.8967 30.0841 21.3547 30.0841C22.9477 30.0841 23.9737 28.6801 23.9737 26.8171Z" fill="white"/>
<path d="M34.5014 38.9671H30.3704V18.4741H34.5014V19.9861C35.3924 18.7171 36.6344 18.0151 38.1464 18.0151C41.8994 18.0151 44.2484 20.9581 44.2484 25.7101C44.2484 30.6511 41.8454 33.4321 38.1464 33.4321C36.6074 33.4321 35.3654 32.7841 34.5014 31.5421V38.9671ZM37.2824 21.3631C35.4464 21.3631 34.5014 22.9021 34.5014 25.7101C34.5014 28.5181 35.4734 30.0841 37.2824 30.0841C39.0644 30.0841 40.0094 28.5451 40.0094 25.7101C40.0094 22.9021 39.0374 21.3631 37.2824 21.3631Z" fill="white"/>
<path d="M45.888 33.0001V13.5601H50.019V20.3911C50.964 18.7711 52.449 18.0151 54.231 18.0151C57.012 18.0151 59.091 19.7161 59.091 23.3071V33.0001H54.96V24.1441C54.96 22.3081 54.231 21.3631 52.719 21.3631C51.072 21.3631 50.019 22.7941 50.019 24.6571V33.0001H45.888Z" fill="white"/>
<path d="M67.8599 33.4321C63.4589 33.4321 60.7319 30.5161 60.7319 25.7371C60.7319 20.7961 63.5399 18.0151 67.8599 18.0151C72.2609 18.0151 75.0149 20.9851 75.0149 25.7371C75.0149 30.6511 72.1799 33.4321 67.8599 33.4321ZM67.8599 30.0841C69.7769 30.0841 70.7759 28.5721 70.7759 25.7371C70.7759 22.9291 69.7499 21.3631 67.8599 21.3631C65.9699 21.3631 64.9709 22.9021 64.9709 25.7371C64.9709 28.5451 65.9969 30.0841 67.8599 30.0841Z" fill="white"/>
<path d="M76.6595 33.0001V18.4741H80.7905V20.4991C81.7085 18.7711 83.1125 18.0151 84.5975 18.0151C85.1915 18.0151 85.7315 18.1771 86.0285 18.4741V21.9571C85.5425 21.8491 85.0295 21.7951 84.3815 21.7951C81.8975 21.7951 80.7905 23.1991 80.7905 25.4941V33.0001H76.6595Z" fill="white"/>
<path d="M87.141 17.0161V13.5601H91.272V17.0161H87.141ZM87.141 33.0001V18.4741H91.272V33.0001H87.141Z" fill="white"/>
<path d="M97.5592 23.2801H93.4282C93.8602 20.0131 96.3712 18.0151 100.097 18.0151C104.255 18.0151 106.415 20.4451 106.415 23.8201V29.3821C106.415 31.2721 106.577 32.2441 106.82 33.0001H102.554C102.419 32.5141 102.338 31.8931 102.311 31.1911C101.177 32.7571 99.4492 33.4321 97.7212 33.4321C94.9672 33.4321 92.9152 32.0281 92.9152 29.2471C92.9152 27.2761 94.0492 25.7641 96.3442 24.9541C98.2342 24.3331 100.043 24.1441 102.284 24.1171V23.7931C102.284 22.2001 101.501 21.3631 99.9082 21.3631C98.5042 21.3631 97.7482 22.1461 97.5592 23.2801ZM97.0462 28.9771C97.0462 29.9491 97.7752 30.5701 98.9902 30.5701C100.826 30.5701 102.284 29.0851 102.284 27.0871V26.5201C98.0992 26.6011 97.0462 27.6271 97.0462 28.9771Z" fill="white"/>
</svg>
