<svg width="20" height="20" viewBox="0 0 20 20" fill="none" xmlns="http://www.w3.org/2000/svg">
<path fill-rule="evenodd" clip-rule="evenodd" d="M6.67294 7.93955C6.52321 7.70753 6.58991 7.3981 6.82193 7.24836L10.7828 4.69228C11.0149 4.54255 11.3243 4.60925 11.474 4.84128L14.0301 8.80217C14.1799 9.03419 14.1132 9.34362 13.8811 9.49336C13.6491 9.64309 13.3397 9.57639 13.1899 9.34436L11.2883 6.39776L10.1379 11.7347C10.0377 12.1996 10.0286 12.9387 10.3201 13.6063C10.599 14.2451 11.1665 14.8548 12.3106 15.1015C12.5805 15.1597 12.7522 15.4257 12.694 15.6956C12.6358 15.9655 12.3698 16.1372 12.0999 16.079C10.6372 15.7637 9.80954 14.9361 9.40358 14.0065C9.01024 13.1057 9.02644 12.1453 9.16036 11.524L10.3108 6.18704L7.36417 8.08856C7.13215 8.23829 6.82267 8.17158 6.67294 7.93955Z" fill="white"/>
</svg>
