<svg width="42" height="42" viewBox="0 0 42 42" fill="none" xmlns="http://www.w3.org/2000/svg">
<rect x="2" y="40" width="38" height="38" rx="19" transform="rotate(-90 2 40)" fill="#1D9B5E"/>
<rect x="2" y="40" width="38" height="38" rx="19" transform="rotate(-90 2 40)" stroke="white" stroke-width="4"/>
<path fill-rule="evenodd" clip-rule="evenodd" d="M22.6393 14.9797C22.8343 14.7842 23.1509 14.7839 23.3464 14.9789L26.693 18.3189C26.8885 18.514 26.8888 18.8306 26.6937 19.0261C26.4987 19.2215 26.1821 19.2218 25.9866 19.0268L22.64 15.6868C22.4445 15.4917 22.4442 15.1751 22.6393 14.9797Z" fill="white"/>
<path fill-rule="evenodd" clip-rule="evenodd" d="M22.9932 27.167C22.717 27.167 22.4932 26.9431 22.4932 26.667L22.4932 15.3337C22.4932 15.0575 22.717 14.8337 22.9932 14.8337C23.2693 14.8337 23.4932 15.0575 23.4932 15.3337L23.4932 26.667C23.4932 26.9431 23.2693 27.167 22.9932 27.167Z" fill="white"/>
<path fill-rule="evenodd" clip-rule="evenodd" d="M15.3063 22.9738C15.5013 22.7783 15.8179 22.778 16.0134 22.9731L19.36 26.3131C19.5555 26.5082 19.5558 26.8247 19.3607 27.0202C19.1657 27.2156 18.8491 27.216 18.6536 27.0209L15.307 23.6809C15.1115 23.4858 15.1112 23.1692 15.3063 22.9738Z" fill="white"/>
<path fill-rule="evenodd" clip-rule="evenodd" d="M19.0068 27.167C18.7307 27.167 18.5068 26.9431 18.5068 26.667L18.5068 15.3337C18.5068 15.0575 18.7307 14.8337 19.0068 14.8337C19.283 14.8337 19.5068 15.0575 19.5068 15.3337L19.5068 26.667C19.5068 26.9431 19.283 27.167 19.0068 27.167Z" fill="white"/>
</svg>
