<svg width="28" height="28" viewBox="0 0 28 28" fill="none" xmlns="http://www.w3.org/2000/svg">
<g clip-path="url(#clip0_1_3642)">
<path fill-rule="evenodd" clip-rule="evenodd" d="M14 0C6.268 0 0 6.268 0 14C0 21.732 6.268 28 14 28C21.732 28 28 21.732 28 14C28 6.268 21.732 0 14 0Z" fill="#E92B2B"/>
<path fill-rule="evenodd" clip-rule="evenodd" d="M26.1271 21H1.87305C2.63513 22.3174 3.60573 23.4991 4.73968 24.5H23.2605C24.3944 23.4991 25.3651 22.3174 26.1271 21Z" fill="#FBFBFB"/>
<path fill-rule="evenodd" clip-rule="evenodd" d="M28 14H0C0 15.2086 0.153137 16.3813 0.441062 17.5H27.5589C27.8469 16.3813 28 15.2086 28 14Z" fill="#FBFBFB"/>
<path fill-rule="evenodd" clip-rule="evenodd" d="M26.1274 7H1.87329C1.24666 8.08325 0.761 9.25831 0.441406 10.5H27.5593C27.2397 9.25831 26.7541 8.08325 26.1274 7Z" fill="#FBFBFB"/>
<path fill-rule="evenodd" clip-rule="evenodd" d="M23.2591 3.5H4.73828C7.20628 1.32172 10.4482 0 13.9987 0C17.5493 0 20.7911 1.32172 23.2591 3.5Z" fill="#FBFBFB"/>
<path fill-rule="evenodd" clip-rule="evenodd" d="M12.6004 0.0690918V14H0C0 6.74037 5.52556 0.771323 12.6004 0.0690918Z" fill="#2A2FAF"/>
<path fill-rule="evenodd" clip-rule="evenodd" d="M2.13487 6.56738H2.7325L1.9096 7.16526L2.22393 8.13263L1.53125 7.62938C1.71732 7.26588 1.91881 6.91163 2.13487 6.56738Z" fill="#FBFBFB"/>
<path fill-rule="evenodd" clip-rule="evenodd" d="M0.332031 10.9582C0.346181 10.8944 0.360763 10.8307 0.375781 10.7672H1.08619L1.40051 9.7998L1.71483 10.7672H2.73199L1.90909 11.3651L2.22341 12.3324L1.40051 11.7346L0.577612 12.3324L0.891931 11.3651L0.332031 10.9582Z" fill="#FBFBFB"/>
<path fill-rule="evenodd" clip-rule="evenodd" d="M4.98716 3.28666C5.37647 2.95876 5.78397 2.65169 6.20784 2.36719H6.93172L6.10878 2.96506L6.42309 3.93244L5.60022 3.33456L4.77734 3.93244L4.98716 3.28666Z" fill="#FBFBFB"/>
<path d="M5.60103 5.6001L5.91534 6.56747H6.93253L6.10959 7.16535L6.42397 8.13272L5.60103 7.53485L4.77816 8.13272L5.09247 7.16535L4.26953 6.56747H5.28672L5.60103 5.6001Z" fill="#FBFBFB"/>
<path d="M5.60103 9.7998L5.91534 10.7672H6.93253L6.10959 11.3651L6.42397 12.3324L5.60103 11.7346L4.77816 12.3324L5.09247 11.3651L4.26953 10.7672H5.28672L5.60103 9.7998Z" fill="#FBFBFB"/>
<path d="M9.80025 1.3999L10.1146 2.36728H11.1317L10.3088 2.96515L10.6231 3.93253L9.80025 3.33466L8.97731 3.93253L9.29163 2.96515L8.46875 2.36728H9.48594L9.80025 1.3999Z" fill="#FBFBFB"/>
<path d="M9.80025 5.6001L10.1146 6.56747H11.1317L10.3088 7.16535L10.6231 8.13272L9.80025 7.53485L8.97731 8.13272L9.29163 7.16535L8.46875 6.56747H9.48594L9.80025 5.6001Z" fill="#FBFBFB"/>
<path d="M9.80025 9.7998L10.1146 10.7672H11.1317L10.3088 11.3651L10.6231 12.3324L9.80025 11.7346L8.97731 12.3324L9.29163 11.3651L8.46875 10.7672H9.48594L9.80025 9.7998Z" fill="#FBFBFB"/>
</g>
<defs>
<clipPath id="clip0_1_3642">
<rect width="28" height="28" fill="white"/>
</clipPath>
</defs>
</svg>
